<?xml version="1.0" encoding="utf-8"?>
<!-- Generator: Adobe Illustrator 16.0.4, SVG Export Plug-In . SVG Version: 6.00 Build 0)  -->
<!DOCTYPE svg PUBLIC "-//W3C//DTD SVG 1.1//EN" "http://www.w3.org/Graphics/SVG/1.1/DTD/svg11.dtd">
<svg version="1.1" id="Vrstva_1" xmlns="http://www.w3.org/2000/svg" xmlns:xlink="http://www.w3.org/1999/xlink" x="0px" y="0px"
	 width="230px" height="55px" viewBox="0 0 230 55" enable-background="new 0 0 230 55" xml:space="preserve">
<g>
	<path d="M26.658,27.104l11.006-0.02h0.007c1.797,0.008,2.909-0.73,3.363-1.68c0.168-0.354,0.254-0.738,0.254-1.123
		c0.001-0.385-0.084-0.773-0.252-1.132c-0.451-0.957-1.556-1.706-3.335-1.706l-11.042-0.014V27.104z M23.381,17.717l15.903,0.018
		c4.017,0,9.42,1.821,9.409,6.548c-0.006,3.076-2.302,4.91-5.01,5.812c1.132,0.244,2.448,0.658,3.309,1.404
		c1.367,1.188,1.634,2.885,1.656,4.992c-0.023,2.129-2.212,2.639-3.664,2.65c-1.452,0.012-3.086-0.312-3.705-2.607
		c-0.254-3.469-1.669-4.625-5.544-5.734l-9.077,0.016v5.195c0,1.742-1.413,3.154-3.155,3.154s-3.155-1.412-3.155-3.154V20.888
		c0-1.702,1.347-3.089,3.034-3.153V17.717z"/>
	<path d="M61.973,38.622H61.97V38.62c-0.09,0-0.177-0.006-0.263-0.02l-1.558-0.006c-0.407,0.002-0.831-0.02-1.262-0.061
		c-1.721-0.17-3.561-0.707-5.075-1.693c-1.527-0.996-2.727-2.449-3.149-4.445c-0.104-0.498-0.161-1.029-0.163-1.596
		c-0.001-0.562,0.054-1.094,0.157-1.592c0.414-1.998,1.606-3.457,3.128-4.459c1.51-0.994,3.347-1.539,5.064-1.717
		c0.432-0.044,0.855-0.067,1.261-0.067v0.001l2.105-0.004c0.071-0.01,0.144-0.016,0.218-0.016l0,0h0.007v0h7.152l0.244,0h0.163
		h0.003h0.035v0.002c0.477,0.011,0.912,0.217,1.225,0.543c0.316,0.33,0.513,0.786,0.515,1.287h0.001v0.008v0.005h-0.001
		c0,0.504-0.2,0.961-0.519,1.293c-0.319,0.332-0.763,0.539-1.251,0.541l0,0.002h-0.007v-0.002H66.08l-4.385,0.012l0,0
		c-1.213,0-2.094,0.424-2.647,1.049c-0.107,0.121-0.203,0.252-0.285,0.385c-0.082,0.133-0.154,0.275-0.214,0.422l0,0l-0.003,0.008
		c-0.058,0.145-0.106,0.34-0.146,0.564h11.348h0.004c0.489,0,0.934,0.201,1.255,0.521c0.318,0.318,0.517,0.76,0.519,1.248h0.001
		v0.008v0.004h-0.001c-0.001,0.488-0.201,0.934-0.523,1.254c-0.319,0.32-0.76,0.518-1.247,0.52v0.002h-0.008v-0.002H58.416
		c0.038,0.188,0.081,0.346,0.131,0.469c0.264,0.646,0.769,1.203,1.518,1.527c0.161,0.07,0.338,0.129,0.53,0.178
		c0.191,0.051,0.395,0.086,0.604,0.107c0.166,0.016,0.343,0.023,0.525,0.023h0h0.007h0l6.043,0.029h2.228h0.004l0,0
		c0.491,0.002,0.938,0.209,1.258,0.543c0.316,0.33,0.513,0.785,0.516,1.283h0v0.008v0.004h0c-0.001,0.504-0.2,0.961-0.519,1.291
		c-0.32,0.33-0.764,0.537-1.251,0.539l0,0.002h-0.007h-1.698v0.004h-0.201l-1.098-0.004H61.973z"/>
	<path d="M81.552,29.487l8.767-6.039c0.838-0.586,1.996-0.381,2.582,0.458c0.586,0.839,0.381,1.995-0.458,2.583l-4.195,2.934
		l0.297-0.002c0.809-0.008,3.271,0.057,4.541,0.596c1.583,0.674,2.898,1.418,2.898,3.803v2.766c0,1.027-0.775,1.861-2.918,1.861
		c-2.144,0-3.045-0.834-3.045-1.861v-2.766c0-0.494-0.285-0.766-0.627-0.91c-0.655-0.279-1.504-0.312-2.001-0.307l-5.84,0.062v2.564
		c0,1.742-1.413,3.154-3.155,3.154c-1.743,0-3.155-1.412-3.155-3.154V20.107c0-1.743,1.413-3.155,3.155-3.155
		c1.742,0,3.155,1.413,3.155,3.155V29.487z"/>
	<path d="M106.935,22.393h6.876h0.004v0c4.939,0.002,9.342,2.763,9.346,8.071h0.001v0.008l0,0v0.006h-0.001
		c-0.002,5.307-4.403,8.068-9.343,8.074h-0.008h-6.876h-0.003c-4.938-0.002-9.342-2.764-9.346-8.072h-0.001v-0.008l0,0v-0.004h0.001
		c0.002-5.309,4.404-8.07,9.343-8.075v0H106.935z"/>
	<path fill="#FFFFFF" d="M109.272,25.849h2.173h0.004v0.002c1.333,0,2.549,0.486,3.429,1.268c0.885,0.785,1.436,1.871,1.438,3.066
		l0,0v0.006v0.801v0.004l0,0c-0.001,1.197-0.552,2.283-1.44,3.07c-0.878,0.779-2.091,1.264-3.422,1.268h-0.009h-2.173h-0.003
		c-1.334-0.002-2.549-0.488-3.429-1.27c-0.885-0.785-1.436-1.871-1.438-3.066h0v-0.006V30.19v-0.002h0
		c0.001-1.197,0.553-2.285,1.439-3.072c0.879-0.779,2.092-1.264,3.422-1.266v-0.002H109.272z"/>
	<path d="M132.268,26.577v7.781l6.937-0.018h0.008c2.098,0.01,4.143-1.625,4.146-3.857c0.003-2.219-2.025-3.895-4.116-3.895
		L132.268,26.577z M125.957,26.028c0-1.742,1.412-3.155,3.155-3.155l11.713,0.005c2.572,0,5.716,1.181,7.639,3.272
		c1.789,1.945,2.319,4.691,1.105,7.064c-1.568,3.074-5.61,4.848-8.781,4.834l-8.521,0.02v2.688c0,1.744-1.413,3.156-3.155,3.156
		c-1.743,0-3.155-1.412-3.155-3.156V26.028z"/>
	<path d="M153.126,19.704c0-1.742,1.412-3.155,3.154-3.155c1.743,0,3.156,1.413,3.156,3.155v15.124c0,1.742-1.413,3.154-3.156,3.154
		c-1.742,0-3.154-1.412-3.154-3.154V19.704z"/>
	<path d="M180.577,35.151l-7.935-0.014h-0.006c-1.474,0.006-2.386-0.516-2.759-1.186c-0.138-0.248-0.207-0.521-0.208-0.791
		c-0.001-0.273,0.068-0.547,0.207-0.799c0.37-0.676,1.276-1.205,2.735-1.205l7.965-0.008V35.151z M180.577,28.53l-9.791,0.01
		c-3.294,0-7.726,1.285-7.718,4.621c0.009,3.336,4.452,4.607,7.748,4.594l12.428,0.018c0.089,0.012,0.171,0.018,0.251,0.018
		c1.598,0,2.918-0.834,2.918-1.863v-8.756c0-2.38-1.315-3.514-2.897-4.186c-1.267-0.539-2.666-0.684-3.471-0.684l-13.302,0.012
		c-1.024,0-1.854,0.814-1.854,1.839c0,1.024,0.83,1.733,1.854,1.733l11.189-0.012c0.823,0,2.645,0.227,2.645,1.418V28.53z"/>
	<path d="M197.591,31.284c-3.553-0.002-7.273-1.08-7.265-4.449c0.01-3.374,3.749-4.353,7.307-4.34
		c4.275-0.006,8.551-0.013,12.826-0.019c1.859-0.026,1.833,2.793,0,2.768l-11.281,0.02h-0.143h-0.006
		c-1.507-0.004-2.201,0.693-2.184,1.611c0.016,0.877,0.569,1.646,1.963,1.711l5.966,0.012c3.557,0,8.34,1.041,8.331,4.412
		c-0.01,3.375-4.834,4.658-8.392,4.646c-4.275,0.006-8.522,0.012-12.798,0.018c-1.859,0.025-1.833-2.67,0-2.646l11.424-0.018h0.007
		c1.591,0.006,2.574-0.521,2.978-1.199c0.148-0.252,0.225-0.527,0.225-0.801c0-0.275-0.074-0.553-0.224-0.809
		c-0.399-0.682-1.251-0.883-2.826-0.883l-5.908-0.014V31.284z"/>
	<path d="M218.297,18.401c0-1.024,0.981-1.855,2.921-1.855s2.911,0.831,2.911,1.855l0.002,3.873h4.477
		c0.875,0,1.584,0.709,1.584,1.584c0,0.874-0.709,1.583-1.584,1.583h-4.476l0.002,5.564h0.008c0,0.506,0.033,1.352,0.305,1.988
		c0.418,0.977,2.888,1.107,3.812,1.318c1.024,0.023,1.826,0.877,1.686,1.646c-0.14,0.768-0.664,1.539-1.688,1.516l-4.003-0.107
		c-2.358-0.064-4.683-1.367-5.348-2.918c-0.544-1.271-0.61-2.643-0.61-3.443h0.009l-0.003-5.564h-3.021
		c-0.874,0-1.583-0.709-1.583-1.583c0-0.875,0.709-1.584,1.583-1.584h3.02L218.297,18.401z"/>
	<path fill="#0480B7" d="M2.595,20.527L19.778,3.345C23.613-0.492,30.03-0.349,34.04,3.662l4.165,4.165H19.828
		c-4.848,0-8.814,4.146-8.814,9.214V37.96c0,5.068,3.97,9.213,8.814,9.213h18.376l-4.481,4.48
		c-3.835,3.838-10.252,3.695-14.262-0.314L2.912,34.788C-1.099,30.78-1.241,24.362,2.595,20.527"/>
</g>
</svg>
