<svg xmlns="http://www.w3.org/2000/svg" xmlns:xlink="http://www.w3.org/1999/xlink" width="500" zoomAndPan="magnify" viewBox="0 0 375 374.999991" height="500" preserveAspectRatio="xMidYMid meet" version="1.0"><defs><clipPath id="cb14962034"><path d="M 170.289062 311.96875 L 187.539062 311.96875 L 187.539062 329.21875 L 170.289062 329.21875 Z M 170.289062 311.96875 " clip-rule="nonzero"/></clipPath><clipPath id="ea09001d39"><path d="M 65.15625 0 L 309.65625 0 L 309.65625 375 L 65.15625 375 Z M 65.15625 0 " clip-rule="nonzero"/></clipPath></defs><g clip-path="url(#cb14962034)"><path fill="#ffffff" d="M 187.539062 320.59375 C 187.539062 321.160156 187.484375 321.71875 187.371094 322.277344 C 187.261719 322.832031 187.097656 323.371094 186.882812 323.894531 C 186.664062 324.417969 186.398438 324.914062 186.085938 325.382812 C 185.769531 325.855469 185.414062 326.292969 185.011719 326.691406 C 184.613281 327.09375 184.175781 327.449219 183.707031 327.765625 C 183.234375 328.078125 182.738281 328.34375 182.214844 328.5625 C 181.691406 328.777344 181.152344 328.941406 180.597656 329.050781 C 180.039062 329.164062 179.480469 329.21875 178.914062 329.21875 C 178.347656 329.21875 177.785156 329.164062 177.230469 329.050781 C 176.675781 328.941406 176.136719 328.777344 175.613281 328.5625 C 175.089844 328.34375 174.59375 328.078125 174.121094 327.765625 C 173.652344 327.449219 173.214844 327.09375 172.816406 326.691406 C 172.414062 326.292969 172.058594 325.855469 171.742188 325.382812 C 171.425781 324.914062 171.160156 324.417969 170.945312 323.894531 C 170.730469 323.371094 170.566406 322.832031 170.453125 322.277344 C 170.34375 321.71875 170.289062 321.160156 170.289062 320.59375 C 170.289062 320.027344 170.34375 319.464844 170.453125 318.910156 C 170.566406 318.355469 170.730469 317.816406 170.945312 317.292969 C 171.160156 316.769531 171.425781 316.273438 171.742188 315.800781 C 172.058594 315.332031 172.414062 314.894531 172.816406 314.496094 C 173.214844 314.09375 173.652344 313.734375 174.121094 313.421875 C 174.59375 313.105469 175.089844 312.839844 175.613281 312.625 C 176.136719 312.40625 176.675781 312.246094 177.230469 312.132812 C 177.785156 312.023438 178.347656 311.96875 178.914062 311.96875 C 179.480469 311.96875 180.039062 312.023438 180.597656 312.132812 C 181.152344 312.246094 181.691406 312.40625 182.214844 312.625 C 182.738281 312.839844 183.234375 313.105469 183.707031 313.421875 C 184.175781 313.734375 184.613281 314.09375 185.011719 314.496094 C 185.414062 314.894531 185.769531 315.332031 186.085938 315.800781 C 186.398438 316.273438 186.664062 316.769531 186.882812 317.292969 C 187.097656 317.816406 187.261719 318.355469 187.371094 318.910156 C 187.484375 319.464844 187.539062 320.027344 187.539062 320.59375 Z M 187.539062 320.59375 " fill-opacity="1" fill-rule="nonzero"/></g><g clip-path="url(#ea09001d39)"><path fill="#ff0000" d="M 252.433594 4.871094 L 309.253906 4.871094 L 202.109375 225.648438 C 205.355469 235.390625 211.851562 275.972656 211.851562 305.195312 C 211.851562 353.894531 198.863281 375 179.382812 375 C 159.902344 375 146.914062 357.144531 146.914062 327.921875 C 146.914062 290.585938 169.644531 251.625 182.628906 227.273438 C 179.382812 201.296875 174.511719 180.195312 168.019531 142.855469 C 161.527344 105.519531 153.410156 79.546875 145.292969 63.3125 C 137.175781 47.078125 127.433594 38.960938 112.824219 38.960938 C 90.097656 38.960938 80.355469 55.195312 78.734375 89.285156 L 65.746094 89.285156 C 65.746094 30.84375 83.605469 0 119.316406 0 C 140.421875 0 155.03125 11.363281 164.773438 35.714844 C 174.511719 60.066406 185.875 112.011719 195.617188 193.183594 Z M 252.433594 4.871094 " fill-opacity="1" fill-rule="nonzero"/></g><script xmlns=""/></svg>