<?xml version="1.0" encoding="UTF-8"?>
<svg width="251px" height="93px" viewBox="0 0 251 93" version="1.1" xmlns="http://www.w3.org/2000/svg" xmlns:xlink="http://www.w3.org/1999/xlink">
    <!-- Generator: Sketch 43.2 (39069) - http://www.bohemiancoding.com/sketch -->
    <title>logo11</title>
    <desc>Created with Sketch.</desc>
    <defs></defs>
    <g id="Page-1" stroke="none" stroke-width="1" fill="none" fill-rule="evenodd">
        <g id="logo11" fill="#1B1712">
            <path d="M15.6599,35.9012 L22.4863,0.9222 L35.6181,0.9222 L32.7,15.8436 L44.1119,0.9222 L59.2759,0.9222 L44.6851,18.1427 L54.0128,35.9012 L37.8066,35.9012 L31.6577,21.2738 L28.7916,35.9012 L15.6599,35.9012 Z M80.0679,32.966 C75.934,35.3143 71.6261,36.4881 67.1446,36.4881 C63.3926,36.4881 60.4397,35.6729 58.286,34.0422 C56.1322,32.4115 55.0551,30.2915 55.0551,27.6823 C55.0551,27.1934 55.0899,26.7939 55.1595,26.4837 C55.2287,26.1739 55.2635,25.9539 55.2635,25.8232 C55.7499,23.4426 56.9397,21.4041 58.8331,19.7081 C60.7265,18.0124 63.0802,16.9524 65.8939,16.5285 C64.9908,15.6802 64.3481,14.9139 63.9657,14.229 C63.4794,13.3485 63.2362,12.3861 63.2362,11.3426 L63.3926,9.8261 C63.9485,6.9559 65.6336,4.6241 68.4472,2.8304 C71.2613,1.0364 74.7526,0.1397 78.9213,0.1397 C82.4997,0.1397 85.305,0.8978 87.3372,2.4144 C89.3693,3.931 90.3856,5.8797 90.3856,8.2607 L90.2292,9.8261 C89.4301,13.968 86.6684,16.6426 81.9437,17.8491 L84.8618,20.9314 C86.0433,20.1812 87.12,19.4148 88.0926,18.632 C89.2393,17.7187 90.3336,16.7241 91.3755,15.6476 L97.316,22.7412 C95.3015,24.5353 93.0257,26.0192 90.49,27.1934 L97.8896,35.9012 L82.3605,35.9012 L80.0679,32.966 Z M76.7851,12.4188 C78.4177,11.6363 79.3384,10.6904 79.5468,9.5816 C79.5468,8.2442 78.9909,7.5758 77.8794,7.5758 C77.2887,7.5758 76.7503,7.7876 76.264,8.2115 C75.7776,8.6358 75.4649,9.1573 75.3257,9.7773 C75.3257,10.9188 75.8124,11.7993 76.7851,12.4188 Z M74.3358,26.4105 L70.7922,22.1544 C69.2639,22.9696 68.4124,23.8178 68.2389,24.6982 C68.2389,26.3943 69.1596,27.2422 71.0005,27.2422 C72.0776,27.2422 73.1895,26.9651 74.3358,26.4105 L74.3358,26.4105 Z M99.0359,35.9012 L105.8623,0.9222 L118.994,0.9222 L116.0759,15.8436 L127.4879,0.9222 L142.6518,0.9222 L128.061,18.1427 L137.3888,35.9012 L121.1826,35.9012 L115.0337,21.2738 L112.1676,35.9012 L99.0359,35.9012 Z" id="path2"></path>
            <g id="Layer1001" transform="translate(0.000000, 41.000000)">
                <polygon id="path4" points="158.2642 0.712 158.2722 8.8811 172.9383 8.8811 173.0955 48.9658 181.1196 48.9658 180.9628 8.8811 195.588 8.8811 195.532 0.712"></polygon>
                <path d="M0.6679,48.613 L10.5664,48.613 C13.3474,48.613 15.5362,47.8527 16.8994,46.433 C18.3395,44.9624 19.1409,42.5797 20.3539,36.2926 L21.883,28.2814 C22.3293,25.9493 22.5672,23.414 22.4859,21.6903 C22.3807,19.4594 21.7783,17.6341 20.8143,16.5691 C19.8503,15.5045 17.8703,14.7948 15.7649,14.7948 L7.1839,14.7948 L0.6679,48.613 Z M6.8386,43.6949 L11.4282,19.7128 L14.6063,19.7128 C16.2749,19.7128 17.2386,20.7775 17.3271,22.6534 C17.3701,23.5662 17.2529,25.2899 17.0926,26.1011 L14.7361,38.4725 C14.4805,39.7909 13.854,41.6669 13.4805,42.1741 C12.7761,43.2387 11.3675,43.6949 8.9839,43.6949 L6.8386,43.6949 Z M28.2391,14.7948 L21.723,48.613 L26.934,48.613 L29.6158,34.7207 L32.3965,34.7207 C34.0652,34.7207 34.9376,35.532 35.0142,37.1544 C35.0405,37.7122 35.0052,37.8135 34.8221,38.9797 L33.7424,45.5708 C33.5219,46.7877 33.4686,47.3455 33.4854,47.7005 C33.5141,48.3089 33.8462,48.613 34.5215,48.613 L38.8519,48.613 C38.7436,48.0046 38.692,47.7511 38.6776,47.4471 C38.6609,47.0921 38.7204,45.8246 38.7481,45.5708 L39.8277,38.9797 C39.9156,38.3207 39.9594,37.56 39.9235,36.7994 C39.8517,35.2786 39.4417,34.1629 38.7002,33.6051 C38.2887,33.3011 38.0454,33.1995 36.7502,32.6926 L37.4908,32.3883 C39.2798,31.577 39.8542,31.1208 40.671,29.9039 C42.1572,27.7236 42.9368,24.8843 42.8077,22.1466 C42.571,17.1269 40.4352,14.7948 36.0651,14.7948 L28.2391,14.7948 Z M30.5154,30.2083 L32.4833,19.7128 L35.145,19.7128 C36.9327,19.7128 37.7678,20.5747 37.8611,22.5522 C37.9472,24.3775 37.4612,26.7096 36.7264,27.9774 C35.8099,29.5999 34.7659,30.2083 32.9386,30.2083 L30.5154,30.2083 Z M61.8015,19.7128 L62.7216,14.7948 L49.0557,14.7948 L42.5396,48.613 L56.8479,48.613 L57.8076,43.6949 L48.7103,43.6949 L50.653,33.5039 L58.8764,33.5039 L59.8364,28.5858 L51.613,28.5858 L53.2999,19.7128 L61.8015,19.7128 Z M64.5491,14.7948 L64.9521,48.613 L70.5138,48.613 L83.3793,14.7948 L78.1355,14.7948 L69.4095,38.6753 L69.1971,14.7948 L64.5491,14.7948 Z M79.8505,34.3151 C79.1489,37.9657 78.8385,40.6528 78.9246,42.4781 C79.1255,46.7371 82.2106,48.9766 88.0106,48.9766 C90.5134,48.9766 91.9192,48.4611 93.3245,47.0921 C94.8045,45.6218 95.4829,43.9994 96.1568,40.6022 L98.8014,26.7606 C99.1521,24.9353 99.3528,22.4506 99.2763,20.8281 C99.0802,16.6707 96.3929,14.4398 91.586,14.4398 C88.4872,14.4398 86.1467,15.3523 84.5224,17.1269 C83.2408,18.5972 82.4951,20.4735 81.7655,24.3775 L79.8505,34.3151 Z M91.5917,37.3066 C90.5692,42.5797 89.5357,44.2528 87.311,44.2528 C85.4838,44.2528 84.1528,42.9853 84.0691,41.2106 C84.0308,40.3994 84.253,38.3713 84.6412,36.4954 L86.6488,25.9999 C87.6738,20.7775 88.7096,19.155 91.0535,19.155 C93.0797,19.155 94.0413,20.1691 94.1417,22.2988 C94.1943,23.414 94.1085,24.124 93.5972,26.7606 L91.5917,37.3066 Z M104.8715,14.7948 L98.3555,48.613 L103.2087,48.613 L108.9487,18.6988 L107.4595,48.613 L113.2993,48.613 L123.0516,18.6988 L117.272,48.613 L122.1184,48.613 L128.6278,14.7948 L120.2457,14.7948 L111.5416,41.6669 L112.9757,14.7948 L104.8715,14.7948 Z M128.5949,34.3151 C127.8932,37.9657 127.5829,40.6528 127.669,42.4781 C127.8698,46.7371 130.955,48.9766 136.7549,48.9766 C139.2578,48.9766 140.6636,48.4611 142.0688,47.0921 C143.5489,45.6218 144.2273,43.9994 144.9012,40.6022 L147.5458,26.7606 C147.8965,24.9353 148.0972,22.4506 148.0207,20.8281 C147.8246,16.6707 145.1372,14.4398 140.3304,14.4398 C137.2316,14.4398 134.891,15.3523 133.2667,17.1269 C131.9852,18.5972 131.2395,20.4735 130.5099,24.3775 L128.5949,34.3151 Z M140.3361,37.3066 C139.3136,42.5797 138.2801,44.2528 136.0554,44.2528 C134.2281,44.2528 132.8971,42.9853 132.8134,41.2106 C132.7752,40.3994 132.9974,38.3713 133.3856,36.4954 L135.3932,25.9999 C136.4181,20.7775 137.454,19.155 139.7979,19.155 C141.824,19.155 142.7856,20.1691 142.8861,22.2988 C142.9387,23.414 142.8529,24.124 142.3416,26.7606 L140.3361,37.3066 Z M153.6556,14.7948 L147.1395,48.613 L151.6352,48.613 L157.0269,20.5747 L158.1107,48.613 L164.6655,48.613 L171.1748,14.7948 L166.6858,14.7948 L161.8334,39.9431 L160.8859,14.7948 L153.6556,14.7948 Z" id="path6"></path>
            </g>
            <polygon id="path9" points="0.984 41.7698 143.247 41.7698 170.0386 8.0284 170.0239 8.0108 175.1045 1.5102 250.7498 92.3859 240.8829 92.3829 175.3404 14.3413 147.3225 49.8472 0.984 49.8472"></polygon>
        </g>
    </g>
</svg>